<svg width="45" height="45" viewBox="0 0 45 45" fill="none" xmlns="http://www.w3.org/2000/svg">
    <circle opacity="0.5" cx="22.5" cy="22.5" r="22.5" fill="#CBF7F0"/>
    <path d="M36 24.5C36.8284 24.5 37.5 23.8284 37.5 23C37.5 22.1716 36.8284 21.5 36 21.5L36 24.5ZM8.93934 21.9393C8.35355 22.5251 8.35355 23.4749 8.93934 24.0607L18.4853 33.6066C19.0711 34.1924 20.0208 34.1924 20.6066 33.6066C21.1924 33.0208 21.1924 32.0711 20.6066 31.4853L12.1213 23L20.6066 14.5147C21.1924 13.9289 21.1924 12.9792 20.6066 12.3934C20.0208 11.8076 19.0711 11.8076 18.4853 12.3934L8.93934 21.9393ZM36 21.5L10 21.5L10 24.5L36 24.5L36 21.5Z" fill="#29DBC2"/>
</svg>
