<svg width="60" height="60" viewBox="0 0 60 60" fill="none" xmlns="http://www.w3.org/2000/svg">
    <circle cx="30" cy="30" r="30" fill="#29DBC2"/>
    <g clip-path="url(#clip0_22_2)">
        <path fill-rule="evenodd" clip-rule="evenodd" d="M30.244 27.2857V31.4H37.1881C36.9082 33.164 35.0891 36.5771 30.244 36.5771C26.0636 36.5771 22.6527 33.1846 22.6527 29C22.6527 24.8171 26.0636 21.4229 30.244 21.4229C32.6228 21.4229 34.2146 22.4171 35.1241 23.2743L38.4475 20.1371C36.3135 18.1829 33.5499 17 30.244 17C23.4748 17 18 22.3657 18 29C18 35.6343 23.4748 41 30.244 41C37.3105 41 42 36.1314 42 29.2743C42 28.4857 41.9108 27.8857 41.8058 27.2857H30.244Z" fill="white"/>
    </g>
    <defs>
        <clipPath id="clip0_22_2">
            <rect width="24" height="24" fill="white" transform="translate(18 17)"/>
        </clipPath>
    </defs>
</svg>
