<svg width="60" height="60" viewBox="0 0 60 60" fill="none" xmlns="http://www.w3.org/2000/svg">
    <circle cx="30" cy="30" r="30" fill="#29DBC2"/>
    <path d="M30 20.163C33.204 20.163 33.584 20.175 34.85 20.233C38.102 20.381 39.621 21.924 39.769 25.152C39.827 26.417 39.838 26.797 39.838 30.001C39.838 33.206 39.826 33.585 39.769 34.85C39.62 38.075 38.105 39.621 34.85 39.769C33.584 39.827 33.206 39.839 30 39.839C26.796 39.839 26.416 39.827 25.151 39.769C21.891 39.62 20.38 38.07 20.232 34.849C20.174 33.584 20.162 33.205 20.162 30C20.162 26.796 20.175 26.417 20.232 25.151C20.381 21.924 21.896 20.38 25.151 20.232C26.417 20.175 26.796 20.163 30 20.163ZM30 18C26.741 18 26.333 18.014 25.053 18.072C20.695 18.272 18.273 20.69 18.073 25.052C18.014 26.333 18 26.741 18 30C18 33.259 18.014 33.668 18.072 34.948C18.272 39.306 20.69 41.728 25.052 41.928C26.333 41.986 26.741 42 30 42C33.259 42 33.668 41.986 34.948 41.928C39.302 41.728 41.73 39.31 41.927 34.948C41.986 33.668 42 33.259 42 30C42 26.741 41.986 26.333 41.928 25.053C41.732 20.699 39.311 18.273 34.949 18.073C33.668 18.014 33.259 18 30 18ZM30 23.838C26.597 23.838 23.838 26.597 23.838 30C23.838 33.403 26.597 36.163 30 36.163C33.403 36.163 36.162 33.404 36.162 30C36.162 26.597 33.403 23.838 30 23.838ZM30 34C27.791 34 26 32.21 26 30C26 27.791 27.791 26 30 26C32.209 26 34 27.791 34 30C34 32.21 32.209 34 30 34ZM36.406 22.155C35.61 22.155 34.965 22.8 34.965 23.595C34.965 24.39 35.61 25.035 36.406 25.035C37.201 25.035 37.845 24.39 37.845 23.595C37.845 22.8 37.201 22.155 36.406 22.155Z" fill="white"/>
</svg>
