<svg width="85" height="26" viewBox="0 0 85 26" fill="none" xmlns="http://www.w3.org/2000/svg">
    <path d="M31.952 5.2C36.176 5.2 38.72 7.312 38.72 10.864C38.72 14.392 36.176 16.504 31.952 16.504H27.152V22H25.928V5.2H31.952ZM31.952 15.4C35.552 15.4 37.472 13.744 37.472 10.864C37.472 7.96 35.552 6.304 31.952 6.304H27.152V15.4H31.952ZM55.9059 22H54.5139L50.5059 16.384C49.9779 16.456 49.4499 16.504 48.8739 16.504H44.0739V22H42.8499V5.2H48.8739C53.0979 5.2 55.6419 7.312 55.6419 10.864C55.6419 13.528 54.2019 15.376 51.7059 16.12L55.9059 22ZM44.0739 15.424H48.8739C52.4739 15.424 54.3939 13.744 54.3939 10.864C54.3939 7.96 52.4739 6.304 48.8739 6.304H44.0739V15.424ZM60.1233 22V5.2H61.3473V22H60.1233ZM79.1345 5.2H80.4065L72.9185 22H71.6945L64.2065 5.2H65.5505L72.3425 20.416L79.1345 5.2ZM83.1155 22V5.2H84.3395V22H83.1155Z" fill="#19232D"/>
    <path d="M15.2132 13.3946L12.6579 10.7802C11.1741 9.26219 8.74082 9.23462 7.22284 10.7185L4.6084 13.2738L7.16375 15.8883C8.64759 17.4062 11.0808 17.4338 12.5988 15.95L15.2132 13.3946Z" fill="#F27D62"/>
    <path d="M15.8972 14.0485L13.2828 16.6039C11.7648 18.0877 11.7372 20.521 13.221 22.0389L15.7764 24.6534L18.3908 22.098C19.9088 20.6142 19.9364 18.181 18.4526 16.663L15.8972 14.0485Z" fill="#F27D62"/>
    <path d="M16.0284 12.5975L18.6428 10.0422C20.1608 8.55834 20.1884 6.12511 18.7045 4.60713L16.1492 1.99269L13.5347 4.54804C12.0167 6.03188 11.9892 8.46511 13.473 9.98309L16.0284 12.5975Z" fill="#F27D62"/>
</svg>
