<svg width="614" height="26" viewBox="0 0 614 26" fill="none" xmlns="http://www.w3.org/2000/svg">
<mask id="mask0_564_353" style="mask-type:alpha" maskUnits="userSpaceOnUse" x="0" y="0" width="614" height="29">
<rect width="614" height="29" transform="matrix(-1 0 0 1 614 0)" fill="white"/>
</mask>
<g mask="url(#mask0_564_353)">
<path d="M565.571 97.1091C538.824 97.1091 517.142 75.4266 517.142 48.6799C517.142 21.9332 538.824 0.250732 565.571 0.250732C592.317 0.250732 614 21.9332 614 48.6799C614 75.4266 592.317 97.1091 565.571 97.1091Z" fill="#529A8B"/>
<path d="M469.591 97.1091C442.844 97.1091 421.162 75.4266 421.162 48.6799C421.162 21.9332 442.844 0.250732 469.591 0.250732C496.337 0.250732 518.02 21.9332 518.02 48.6799C518.02 75.4266 496.337 97.1091 469.591 97.1091Z" fill="#E38369"/>
<path d="M42.5708 97.1091C15.8241 97.1091 -5.85841 75.4266 -5.85841 48.6799C-5.85841 21.9332 15.8241 0.250732 42.5708 0.250732C69.3175 0.250732 91 21.9332 91 48.6799C91 75.4266 69.3175 97.1091 42.5708 97.1091Z" fill="#245156"/>
<path d="M410.042 49H382.707C368.526 49 364.397 49 341 49L341 2H383.902C408.812 2 429 22.3588 429 49H410.042Z" fill="#E9EFE8"/>
<path d="M324.042 49H296.707C282.526 49 278.397 49 255 49L255 2H297.902C322.812 2 343 22.3588 343 49H324.042Z" fill="#19232D"/>
<path d="M238.042 49H210.707C196.526 49 192.397 49 169 49L169 2H211.902C236.812 2 257 22.3588 257 49H238.042Z" fill="#E9EFE8"/>
<path fill-rule="evenodd" clip-rule="evenodd" d="M211 120.75C211 54.0659 156.946 0 90.2497 0V120.75H211Z" fill="#529A8B"/>
</g>
</svg>
