<svg width="712" height="26" viewBox="0 0 712 26" fill="none" xmlns="http://www.w3.org/2000/svg">
<mask id="mask0_564_325" style="mask-type:alpha" maskUnits="userSpaceOnUse" x="0" y="0" width="712" height="29">
<rect width="712" height="29" fill="white"/>
</mask>
<g mask="url(#mask0_564_325)">
<path d="M48.4292 97.1091C75.1759 97.1091 96.8584 75.4266 96.8584 48.6799C96.8584 21.9332 75.1759 0.250732 48.4292 0.250732C21.6825 0.250732 0 21.9332 0 48.6799C0 75.4266 21.6825 97.1091 48.4292 97.1091Z" fill="#529A8B"/>
<path d="M144.409 97.1091C171.156 97.1091 192.838 75.4266 192.838 48.6799C192.838 21.9332 171.156 0.250732 144.409 0.250732C117.663 0.250732 95.98 21.9332 95.98 48.6799C95.98 75.4266 117.663 97.1091 144.409 97.1091Z" fill="#E38369"/>
<path d="M571.429 97.1091C598.176 97.1091 619.858 75.4266 619.858 48.6799C619.858 21.9332 598.176 0.250732 571.429 0.250732C544.683 0.250732 523 21.9332 523 48.6799C523 75.4266 544.683 97.1091 571.429 97.1091Z" fill="#245156"/>
<path d="M203.958 49H231.293C245.474 49 249.603 49 273 49L273 2H230.098C205.188 2 185 22.3588 185 49H203.958Z" fill="#E9EFE8"/>
<path d="M289.958 49H317.293C331.474 49 335.603 49 359 49L359 2H316.098C291.188 2 271 22.3588 271 49H289.958Z" fill="#19232D"/>
<path d="M375.958 49H403.293C417.474 49 421.603 49 445 49L445 2H402.098C377.188 2 357 22.3588 357 49H375.958Z" fill="#E9EFE8"/>
<path fill-rule="evenodd" clip-rule="evenodd" d="M403 120.75C403 54.0659 457.054 0 523.75 0V120.75H403Z" fill="#529A8B"/>
<path fill-rule="evenodd" clip-rule="evenodd" d="M591 120.75C591 54.0659 645.054 0 711.75 0V120.75H591Z" fill="#E38369"/>
</g>
</svg>
