<svg width="164" height="52" viewBox="0 0 164 52" fill="none" xmlns="http://www.w3.org/2000/svg">
    <path d="M67.412 11.2C75.156 11.2 79.82 15.072 79.82 21.584C79.82 28.052 75.156 31.924 67.412 31.924H58.612V42H56.368V11.2H67.412ZM67.412 29.9C74.012 29.9 77.532 26.864 77.532 21.584C77.532 16.26 74.012 13.224 67.412 13.224H58.612V29.9H67.412ZM111.327 42H108.775L101.427 31.704C100.459 31.836 99.4914 31.924 98.4354 31.924H89.6354V42H87.3914V11.2H98.4354C106.179 11.2 110.843 15.072 110.843 21.584C110.843 26.468 108.203 29.856 103.627 31.22L111.327 42ZM89.6354 29.944H98.4354C105.035 29.944 108.555 26.864 108.555 21.584C108.555 16.26 105.035 13.224 98.4354 13.224H89.6354V29.944ZM119.059 42V11.2H121.303V42H119.059ZM153.913 11.2H156.245L142.517 42H140.273L126.545 11.2H129.009L141.461 39.096L153.913 11.2ZM161.212 42V11.2H163.456V42H161.212Z" fill="white"/>
    <path d="M30.4266 26.7892L25.3158 21.5603C22.3482 18.5243 17.4817 18.4692 14.4457 21.4369L9.21686 26.5476L14.3276 31.7764C17.2952 34.8124 22.1617 34.8676 25.1977 31.8999L30.4266 26.7892Z" fill="#F27D62"/>
    <path d="M31.7948 28.0971L26.566 33.2078C23.53 36.1755 23.4748 41.0419 26.4425 44.0779L31.5532 49.3068L36.7821 44.1961C39.8181 41.2284 39.8732 36.3619 36.9056 33.326L31.7948 28.0971Z" fill="#F27D62"/>
    <path d="M32.0574 25.1951L37.2863 20.0844C40.3223 17.1167 40.3774 12.2502 37.4098 9.21426L32.2991 3.98537L27.0702 9.09608C24.0342 12.0638 23.9791 16.9302 26.9467 19.9662L32.0574 25.1951Z" fill="#F27D62"/>
</svg>

