<svg width="52" height="52" viewBox="0 0 52 52" fill="none" xmlns="http://www.w3.org/2000/svg">
<path d="M25.2108 30.4266L30.4397 25.3158C33.4757 22.3482 33.5308 17.4817 30.5631 14.4457L25.4524 9.21686L20.2235 14.3276C17.1876 17.2952 17.1324 22.1617 20.1001 25.1977L25.2108 30.4266Z" fill="#F27D62"/>
<path d="M23.9029 31.7948L18.7922 26.566C15.8245 23.53 10.9581 23.4748 7.92212 26.4425L2.69323 31.5532L7.80394 36.7821C10.7716 39.8181 15.6381 39.8732 18.674 36.9056L23.9029 31.7948Z" fill="#F27D62"/>
<path d="M26.805 32.0575L31.9157 37.2864C34.8833 40.3223 39.7498 40.3775 42.7858 37.4098L48.0146 32.2991L42.9039 27.0702C39.9363 24.0342 35.0698 23.9791 32.0338 26.9468L26.805 32.0575Z" fill="#F27D62"/>
</svg>
